<?xml version="1.0" standalone="no"?>
<!DOCTYPE svg PUBLIC "-//W3C//DTD SVG 20010904//EN"
 "http://www.w3.org/TR/2001/REC-SVG-20010904/DTD/svg10.dtd">
<svg version="1.0" xmlns="http://www.w3.org/2000/svg"
 width="1007.000000pt" height="210.000000pt" viewBox="0 0 1007.000000 210.000000"
 preserveAspectRatio="xMidYMid meet">

<g transform="translate(0.000000,210.000000) scale(0.100000,-0.100000)"
fill="#000000" stroke="none">
<path d="M1145 2078 c-47 -17 -83 -45 -184 -142 -97 -95 -251 -268 -251 -283
0 -4 121 -130 270 -278 l270 -270 96 95 c52 52 172 175 265 272 l170 177 -92
108 c-129 150 -269 286 -321 312 -49 23 -168 28 -223 9z"/>
<path d="M9717 1814 c-32 -63 -57 -117 -57 -120 0 -2 20 -4 44 -4 l44 0 79
108 c43 59 82 113 87 120 5 9 -10 12 -67 12 l-74 0 -56 -116z"/>
<path d="M355 1693 c-130 -111 -278 -262 -310 -318 -23 -38 -29 -63 -33 -126
-7 -124 6 -150 162 -304 72 -71 165 -158 206 -191 l75 -61 272 267 271 267
-271 271 c-150 150 -274 272 -277 272 -3 0 -45 -35 -95 -77z"/>
<path d="M7543 1572 c-28 -10 -70 -31 -92 -45 l-41 -27 0 35 0 35 -60 0 -60 0
0 -485 0 -485 60 0 60 0 0 145 c0 80 1 145 3 145 1 0 26 -9 55 -20 76 -29 191
-27 257 4 58 27 129 100 155 160 59 131 44 344 -31 453 -62 90 -191 126 -306
85z m165 -119 c44 -33 69 -79 82 -150 23 -137 -15 -269 -93 -321 -36 -24 -50
-27 -126 -27 -58 0 -98 6 -124 17 l-37 17 2 208 3 208 50 27 c28 16 64 32 80
38 47 15 132 6 163 -17z"/>
<path d="M8307 1580 c-92 -24 -178 -97 -220 -188 -19 -41 -22 -65 -22 -177 0
-122 2 -133 28 -187 59 -120 169 -178 338 -178 66 0 108 6 168 25 l81 26 0 64
0 64 -42 -24 c-79 -43 -144 -58 -227 -53 -42 3 -90 12 -106 20 -72 38 -124
119 -125 196 l0 42 261 0 262 0 -6 84 c-10 138 -65 231 -162 272 -47 19 -174
27 -228 14z m194 -111 c41 -20 75 -80 81 -139 l3 -35 -202 -3 -203 -2 0 22 c1
40 36 103 76 136 65 54 165 62 245 21z"/>
<path d="M8880 1215 l0 -355 60 0 60 0 0 254 0 254 48 29 c79 48 105 55 192
51 l81 -3 -3 60 -3 60 -45 3 c-71 6 -143 -15 -205 -59 -31 -21 -58 -39 -60
-39 -3 0 -5 23 -5 50 l0 50 -60 0 -60 0 0 -355z"/>
<path d="M9440 1303 c0 -149 5 -284 10 -304 16 -56 51 -101 100 -129 38 -21
58 -25 125 -24 82 0 124 14 197 65 35 26 38 24 38 -16 l0 -35 60 0 60 0 0 355
0 355 -60 0 -60 0 0 -267 0 -268 -43 -27 c-126 -79 -246 -73 -294 15 -16 28
-18 66 -21 290 l-3 257 -55 0 -54 0 0 -267z"/>
</g>
</svg>
